<?xml version="1.0" encoding="UTF-8" standalone="no"?>
<!DOCTYPE svg PUBLIC "-//W3C//DTD SVG 1.1//EN" "http://www.w3.org/Graphics/SVG/1.1/DTD/svg11.dtd">
<svg width="100%" height="100%" viewBox="0 0 300 300" version="1.1" xmlns="http://www.w3.org/2000/svg" xmlns:xlink="http://www.w3.org/1999/xlink" xml:space="preserve" xmlns:serif="http://www.serif.com/" style="fill-rule:evenodd;clip-rule:evenodd;stroke-linejoin:round;stroke-miterlimit:2;">
    <g>
        <path d="M150,32.255C214.985,32.255 267.745,85.015 267.745,150C267.745,214.985 214.985,267.745 150,267.745C85.015,267.745 32.255,214.985 32.255,150C32.255,85.015 85.015,32.255 150,32.255ZM150,57.584C200.64,57.584 241.753,98.994 241.753,150C241.753,201.006 200.64,242.416 150,242.416C99.36,242.416 58.247,201.006 58.247,150C58.247,98.994 99.36,57.584 150,57.584Z" style="fill:url(#_Linear1);"/>
    </g>
    <g transform="matrix(0.721515,-1.7672e-16,1.7672e-16,0.721515,32.4146,40.7056)">
        <circle cx="162.97" cy="151.479" r="81.793" style="fill:url(#_Linear2);"/>
    </g>
    <defs>
        <linearGradient id="_Linear1" x1="0" y1="0" x2="1" y2="0" gradientUnits="userSpaceOnUse" gradientTransform="matrix(-175.038,-183.766,183.766,-175.038,232.71,247.173)"><stop offset="0" style="stop-color:white;stop-opacity:0.21"/><stop offset="1" style="stop-color:white;stop-opacity:0.04"/></linearGradient>
        <linearGradient id="_Linear2" x1="0" y1="0" x2="1" y2="0" gradientUnits="userSpaceOnUse" gradientTransform="matrix(-163.586,-163.586,163.586,-163.586,244.763,233.272)"><stop offset="0" style="stop-color:white;stop-opacity:0.16"/><stop offset="1" style="stop-color:white;stop-opacity:0.04"/></linearGradient>
    </defs>
</svg>
