<?xml version="1.0" encoding="UTF-8" standalone="no"?>
<!DOCTYPE svg PUBLIC "-//W3C//DTD SVG 1.1//EN" "http://www.w3.org/Graphics/SVG/1.1/DTD/svg11.dtd">
<svg width="100%" height="100%" viewBox="0 0 300 300" version="1.1" xmlns="http://www.w3.org/2000/svg" xmlns:xlink="http://www.w3.org/1999/xlink" xml:space="preserve" xmlns:serif="http://www.serif.com/" style="fill-rule:evenodd;clip-rule:evenodd;stroke-linejoin:round;stroke-miterlimit:2;">
    <g transform="matrix(0.932174,0,0,0.932174,10.1738,10.1738)">
        <path d="M150,17.391C223.189,17.391 282.609,76.811 282.609,150C282.609,223.189 223.189,282.609 150,282.609C76.811,282.609 17.391,223.189 17.391,150C17.391,76.811 76.811,17.391 150,17.391ZM150,35.87C212.99,35.87 264.13,87.01 264.13,150C264.13,212.99 212.99,264.13 150,264.13C87.01,264.13 35.87,212.99 35.87,150C35.87,87.01 87.01,35.87 150,35.87Z" style="fill:url(#_Linear1);"/>
    </g>
    <g transform="matrix(0.939457,0,0,0.939457,-3.10282,7.69241)">
        <circle cx="162.97" cy="151.479" r="81.793" style="fill:url(#_Radial2);"/>
    </g>
    <g transform="matrix(189.977,0,0,189.977,80.3806,221.333)">
        <path d="M0.022,-0.115C0.007,-0.079 0.008,-0.05 0.026,-0.029C0.043,-0.007 0.068,0.004 0.1,0.004C0.132,0.005 0.162,-0.008 0.191,-0.035C0.209,-0.055 0.225,-0.073 0.24,-0.089C0.263,-0.116 0.281,-0.137 0.296,-0.152C0.311,-0.167 0.322,-0.175 0.331,-0.176C0.341,-0.177 0.354,-0.168 0.371,-0.15C0.388,-0.132 0.409,-0.106 0.435,-0.074C0.444,-0.062 0.455,-0.049 0.466,-0.035C0.487,-0.009 0.512,0.004 0.54,0.003C0.567,0.002 0.591,-0.008 0.611,-0.027C0.631,-0.046 0.641,-0.07 0.64,-0.098C0.638,-0.115 0.63,-0.136 0.617,-0.159C0.603,-0.183 0.587,-0.208 0.57,-0.232C0.553,-0.257 0.538,-0.281 0.525,-0.302C0.513,-0.324 0.507,-0.341 0.507,-0.354C0.51,-0.374 0.522,-0.396 0.543,-0.423C0.564,-0.449 0.588,-0.477 0.616,-0.506C0.653,-0.544 0.685,-0.582 0.71,-0.618C0.725,-0.643 0.725,-0.668 0.709,-0.694C0.694,-0.719 0.671,-0.737 0.642,-0.749C0.613,-0.759 0.585,-0.755 0.559,-0.737C0.539,-0.714 0.52,-0.691 0.502,-0.671C0.471,-0.633 0.444,-0.603 0.422,-0.58C0.4,-0.557 0.384,-0.546 0.372,-0.545C0.362,-0.547 0.348,-0.559 0.332,-0.581C0.314,-0.604 0.294,-0.632 0.271,-0.668C0.259,-0.687 0.245,-0.707 0.231,-0.728C0.217,-0.746 0.198,-0.755 0.175,-0.755C0.151,-0.755 0.127,-0.748 0.104,-0.735C0.082,-0.722 0.064,-0.705 0.052,-0.685C0.04,-0.664 0.038,-0.643 0.047,-0.622C0.06,-0.596 0.079,-0.565 0.103,-0.53C0.125,-0.497 0.145,-0.464 0.163,-0.433C0.181,-0.401 0.189,-0.375 0.189,-0.353C0.188,-0.34 0.18,-0.324 0.165,-0.304C0.15,-0.285 0.133,-0.263 0.113,-0.239C0.095,-0.218 0.077,-0.196 0.061,-0.175C0.044,-0.153 0.031,-0.133 0.022,-0.115Z" style="fill:white;fill-rule:nonzero;"/>
    </g>
    <path d="M83.313,212.401C81.965,217.482 82.61,221.652 85.297,224.86C88.544,228.942 93.275,231.076 99.304,231.168C105.426,231.261 111.178,228.757 116.743,223.747C120.176,219.944 123.144,216.512 125.927,213.358C130.287,208.349 133.812,204.36 136.687,201.484C139.47,198.609 141.604,197.032 143.181,196.846C145.129,196.753 147.633,198.423 150.88,201.855C154.034,205.288 158.023,210.111 162.939,216.326C164.794,218.645 166.742,221.057 168.876,223.747C172.958,228.664 177.688,231.076 182.883,230.89C188.078,230.705 192.623,228.757 196.426,225.139C200.23,221.521 202.085,217.068 201.992,211.688C201.872,210.637 201.635,209.517 201.281,208.333C200.427,211.278 198.809,213.872 196.426,216.139C192.623,219.757 188.078,221.705 182.883,221.89C177.688,222.076 172.958,219.664 168.876,214.747C166.742,212.057 164.794,209.645 162.939,207.326C158.023,201.111 154.034,196.288 150.88,192.855C147.633,189.423 145.129,187.753 143.181,187.846C141.604,188.032 139.47,189.609 136.687,192.484C133.812,195.36 130.287,199.349 125.927,204.358C123.144,207.512 120.176,210.944 116.743,214.747C111.178,219.757 105.426,222.261 99.304,222.168C93.275,222.076 88.544,219.942 85.297,215.86C84.417,214.81 83.757,213.656 83.313,212.401ZM216.535,101.487C216.226,102.321 215.831,103.155 215.35,103.989C210.434,110.853 204.404,117.903 197.447,125.232C192.159,130.797 187.521,135.992 183.532,141.001C179.544,146.01 177.225,150.277 176.761,153.988C176.707,155.48 177.052,157.187 177.813,159.142C178.93,156.392 180.855,153.364 183.532,150.001C187.521,144.992 192.159,139.797 197.447,134.232C204.404,126.903 210.434,119.853 215.35,112.989C217.562,109.155 217.957,105.321 216.535,101.487ZM89.072,102.614C87.861,105.763 87.948,108.958 89.286,112.154C91.79,117.071 95.315,122.915 99.954,129.686C104.128,135.994 107.931,142.116 111.271,148.146C113.23,151.588 114.614,154.697 115.442,157.491C115.955,156.307 116.261,155.234 116.372,154.266C116.372,150.185 114.703,145.176 111.271,139.146C107.931,133.116 104.128,126.994 99.954,120.686C95.315,113.915 91.79,108.071 89.286,103.154C89.211,102.974 89.139,102.794 89.072,102.614Z" style="fill-opacity:0.75;fill-rule:nonzero;"/>
    <defs>
        <linearGradient id="_Linear1" x1="0" y1="0" x2="1" y2="0" gradientUnits="userSpaceOnUse" gradientTransform="matrix(-182.577,-191.681,191.681,-182.577,239.943,247.688)"><stop offset="0" style="stop-color:white;stop-opacity:0.25"/><stop offset="1" style="stop-color:white;stop-opacity:0.1"/></linearGradient>
        <radialGradient id="_Radial2" cx="0" cy="0" r="1" gradientUnits="userSpaceOnUse" gradientTransform="matrix(93.3239,0,0,93.3239,162.97,151.479)"><stop offset="0" style="stop-color:white;stop-opacity:0.2"/><stop offset="1" style="stop-color:white;stop-opacity:0.05"/></radialGradient>
    </defs>
</svg>
